<svg width="1099" height="315" viewBox="0 0 1099 315" fill="none" xmlns="http://www.w3.org/2000/svg">
<g clip-path="url(#clip0_33_84)">
<path d="M501.8 142.267C502.2 238.4 502.467 247.2 504.6 252.8C507.667 260.8 513.933 268.133 520.467 271.467C534.333 278.533 562.6 275.067 578.333 264.4L582.467 261.6L577.667 243.067C573.933 228.267 572.467 224.667 570.867 225.2C559.933 228.933 557.533 229.2 555.4 227.067C554.333 226 552.733 222.667 552.2 219.867C551.533 217.067 550.867 174.933 550.867 126.267V38H526.2H501.4L501.8 142.267Z" fill="black"/>
<path d="M604.2 154.667V271.333H628.867H653.534L653.8 235.733L654.2 200L677.4 235.733L700.6 271.333H732.467C758.467 271.333 764.2 271.067 763.267 269.6C762.734 268.667 750.334 250.267 735.8 228.8C721.267 207.333 709.667 189.067 709.934 188.133C710.334 187.2 720.867 172.267 733.4 154.8C745.934 137.467 756.2 122.933 756.2 122.533C756.2 122.267 742.2 122 725.267 122L694.2 122.133L674.2 154L654.2 185.867L653.8 112L653.534 38H628.867H604.2V154.667Z" fill="black"/>
<path d="M799.533 43.7334C787.4 49.3334 782.067 59.0667 783.267 73.4667C784.067 84.2667 788.6 91.6 797.4 96.2667C805.133 100.267 817.933 100.533 825.4 96.6667C844.867 86.8 846.467 58.1334 828.333 46C822.467 42 806.067 40.8 799.533 43.7334Z" fill="black"/>
<path d="M380.467 119.867C354.2 126.267 331.8 148.4 324.867 174.8C322.467 183.867 322.2 206.667 324.333 216.933C329.667 242.933 350.867 264.8 377.533 272.133C389.4 275.467 418.467 275.467 431.4 272.267C440.467 270 454.467 263.867 459.267 260.133C461.933 258 462.467 259.867 449.4 226.4L448.333 223.467L441 226.8C432.6 230.667 418.067 234 409.533 234C400.867 234 388.333 230.4 383.267 226.533C380.867 224.667 377.667 220.8 376.2 217.867L373.533 212.667H423.4H473.267L474.067 209.6C475.933 202.667 476.467 183.333 475 174.533C470.467 148.667 449.933 126.933 423.267 120C413.933 117.6 390.333 117.6 380.467 119.867ZM414.867 162C420.6 164.933 423.667 168.667 425.533 175.2L426.733 179.333H399.4H372.2L374.733 174.267C379.933 164.133 388.2 159.467 401.267 159.333C407.133 159.333 411.267 160.133 414.867 162Z" fill="black"/>
<path d="M947.933 121.333C944.6 122.4 938.733 125.333 935 127.867L928.2 132.533V127.2V122H903.533H878.867V196.667V271.333H903.533H928.2V223.333V175.333L933.667 171.467C947.4 161.333 967.267 164.267 973.533 177.333C976.067 182.533 976.2 185.6 976.2 227.067V271.333H1001.53H1026.87V224.933C1026.73 158.667 1025.13 149.467 1010.33 134.533C999 123.2 991.4 120.4 970.2 119.867C958.6 119.467 952.467 119.867 947.933 121.333Z" fill="black"/>
<path d="M72.8667 127.6C73.9333 130.8 79.9333 149.467 86.2 169.333C92.6 189.067 102.467 220.133 108.333 238.4L119 271.333L140.6 271.067L162.067 270.667L175.933 235.333C183.4 215.867 190.467 196.933 191.533 193.333C193.4 186.267 193.533 186.4 196.733 198C197.933 202 204.467 220 211.4 238L223.933 270.667H247H270.067L291.133 202.667C302.733 165.2 313 131.867 314.067 128.267L315.933 122H290.867H265.8L257 158.267C252.2 178.267 247.8 197.6 247.133 201.333C246.067 207.6 245.933 207.733 245 204C244.6 201.733 238.333 182.4 231.133 161.067L218.2 122H195.4H172.733L161.533 156.267C155.4 175.2 149.4 194.533 148.2 199.2L146.067 207.867L144.333 198.533C143.533 193.467 138.733 174.267 133.8 156L124.867 122.667L97.9333 122.267L71 122L72.8667 127.6Z" fill="black"/>
<path d="M786.867 196.667V271.333H811.533H836.2V196.667V122H811.533H786.867V196.667Z" fill="black"/>
<circle cx="1076" cy="248" r="23" fill="#FEC300"/>
</g>
<defs>
<clipPath id="clip0_33_84">
<rect width="1098.67" height="314.667" fill="white"/>
</clipPath>
</defs>
</svg>
